<?xml version="1.0" encoding="UTF-8"?>
<svg id="Layer_1" xmlns="http://www.w3.org/2000/svg" width="29.9999995cm" height="9.8410999cm" version="1.1" viewBox="0 0 850.3937008 278.960315">
  <!-- Generator: Adobe Illustrator 29.1.0, SVG Export Plug-In . SVG Version: 2.1.0 Build 142)  -->
  <defs>
    <style>
      .st0 {
        fill: #30f6ba;
      }

      .st1 {
        fill: #fff;
      }
    </style>
  </defs>
  <path class="st0" d="M212.4626529,277.5269783h-.0270611c-1.5835436-.0149303-2.8544843-1.3101327-2.8404871-2.8927431.1688989-18.440771-13.9719494-32.3371358-32.7747799-46.6048916-12.3426818,4.3391147-24.4539442,6.7484898-35.1067041,6.7484898-14.9302872,0-27.3037628-3.8501478-38.7524936-12.0898001-11.0792063,7.9167848-24.0993499,12.0898001-37.7960221,12.0898001C29.2325692,234.7778334,0,205.5443311,0,169.6127286c0-22.0277725,10.8823131-42.2069888,29.2008424-54.3350478-.1418377-1.5648807-.2136897-3.1045666-.2136897-4.5947959,0-25.0082311,17.4647035-46.0282092,41.7992054-50.6855257,6.1942029-22.3170468,26.3734192-37.7409667,49.7197227-37.7409667,6.1951361,0,12.232571,1.0824458,17.976999,3.2202763,9.8297279-11.3162246,23.9071224-17.7623761,38.9521862-17.7623761,15.398725,0,29.6786116,6.6878355,39.5260691,18.4305064,6.2427263-2.5810734,12.8456459-3.8884067,19.6603888-3.8884067,23.3463035,0,43.5255198,15.4239198,49.7197227,37.7409667,24.3345019,4.6573165,41.7992054,25.6772946,41.7992054,50.6855257,0,1.4902293-.071852,3.0299152-.2136897,4.5947959,18.3194624,12.1280589,29.2008424,32.305409,29.2008424,54.3350478,0,36.6314597-23.1438115,59.7659398-65.1669712,65.1427094-19.0435814,2.4355031-41.1795984,20.3966386-41.1795984,39.9049252,0,1.5826104-1.2830716,2.8666151-2.8666151,2.8666151s-2.8666151-1.2840047-2.8666151-2.8666151c0-10.7442079,5.4551537-21.6209222,15.3604661-30.6238854,8.83873-8.0343608,20.3621123-13.6313522,30.8245111-14.9694792,38.7954182-4.9624542,60.1615924-26.0776129,60.1615924-59.45427,0-20.6411221-10.4763959-39.5008743-28.0241491-50.4494405-.9471401-.5906795-1.4650344-1.6768579-1.3278624-2.7844986.2454166-1.9810625.3648589-3.844549.3648589-5.6959046,0-22.429024-16.6873954-41.9223802-38.8159474-45.3432823-1.1505653-.1782303-2.0799756-1.0339224-2.3505871-2.1667579-4.9512565-20.7148404-23.2996464-35.1832218-44.6191634-35.1832218-6.7307601,0-13.2282345,1.4342407-19.3113934,4.262597-1.2158853.5626852-2.6641231.2118234-3.4806232-.8528927-8.7715437-11.4086057-22.0371039-17.9518041-36.3944414-17.9518041-14.0046094,0-27.0686107,6.2865841-35.8410876,17.2482143-.7997035.9993961-2.1658248,1.3455921-3.3471838.8519595-5.6259189-2.3608517-11.5943012-3.5580741-17.7409138-3.5580741-21.319517,0-39.6679069,14.4683815-44.6191634,35.1832218-.2706115,1.1328355-1.2000218,1.9885276-2.3505871,2.1667579-22.128552,3.4209021-38.8159474,22.9142583-38.8159474,45.3432823,0,1.8513556.1194423,3.7148421.3648589,5.6959046.137172,1.1076407-.3807223,2.1938191-1.3278624,2.7844986-17.5477532,10.9494994-28.0241491,29.8083184-28.0241491,50.4494405,0,32.7701142,26.6608273,59.4318746,59.4318746,59.4318746,13.1517168,0,25.621306-4.2196724,36.0585099-12.1999109,1.0283235-.7875727,2.454166-.7875727,3.4824895,0,10.8841794,8.3236351,22.6436469,12.1999109,37.0075163,12.1999109,8.636238,0,18.7599059-1.8233613,29.4080001-5.2591937-2.9935226-2.1947522-6.0728943-4.4081673-9.2045221-6.6607744-31.6969998-22.7910834-67.6230034-48.6223466-67.6230034-95.0909993,0-.2790097.0410583-.5561532.1203754-.8220989,1.2560104-11.8406509,6.005708-22.5839257,13.7517277-31.0941894,9.2073215-10.1152696,21.5145439-15.686133,34.6531966-15.686133,15.2316924,0,29.3454795,7.5743213,38.539737,20.4759558,9.1942575-12.9016344,23.3080446-20.4759558,38.5388039-20.4759558,12.4098681,0,24.2393213,5.0268411,33.3094708,14.1539123,8.5279934,8.5821157,15.2083638,23.2529892,15.2083638,33.3990525,0,29.426663-16.2992079,58.2346522-45.8938366,81.1171836-12.0739366,9.3351621-25.7547455,17.0671846-39.4056937,22.5559314,18.2168167,14.2229649,32.3940576,29.1607172,32.2120947,49.029197-.0149303,1.5751453-1.2952024,2.8404871-2.865682,2.8404871ZM100.0282587,122.511405c.2528817,43.2343792,34.7689064,68.0522492,65.2350906,89.9587131,4.2047421,3.0233832,8.3693591,6.018772,12.3986704,9.0272249,40.2268595-15.163573,85.0205206-51.9853938,85.0205206-99.5131638,0-8.6735637-6.0747606-21.8439434-13.5417705-29.3585435-7.9858374-8.035294-18.3717184-12.461191-29.2428338-12.461191-14.6214169,0-28.1062657,8.0203637-36.0734402,21.4548227-.5160281.8706224-1.4529036,1.4043801-2.4653637,1.4043801s-1.9493356-.5337578-2.4653637-1.4043801c-7.9671745-13.4344591-21.4520233-21.4548227-36.0743734-21.4548227-11.5047194,0-22.3058491,4.9055325-30.4129951,13.812382-7.0023047,7.6937636-11.266768,17.4544389-12.330551,28.2275743-.0102646.1035789-.026128.2062246-.0475903.307004Z"/>
  <g>
    <path class="st1" d="M423.0916799,68.175424V5.7350966h-25.2135225V0h57.5683881v5.7350966h-25.5373232v62.4403275h-6.8175424Z"/>
    <path class="st1" d="M469.6191206,68.175424h-6.6029195V0h6.6029195v29.8671064c2.2731362-5.7350966,8.7640786-9.9557021,15.7999765-9.9557021,12.1196607,0,17.2034235,7.8999882,17.2034235,19.1536922v29.1103275h-6.599187v-29.3268167c0-8.3320334-4.3297833-13.7433294-12.3361498-13.7433294-7.4688762,0-14.0680631,5.8442743-14.0680631,14.9340198v28.1361263Z"/>
    <path class="st1" d="M556.1849259,52.1598916c-2.2731362,10.7134142-10.0630136,17.3144675-21.5332067,17.3144675-13.6350848,0-23.806343-9.6319015-23.806343-24.1320099,0-14.8257752,10.0630136-25.4309449,23.3733646-25.4309449,14.7175306,0,22.0744297,10.6051696,22.0744297,23.3742978v3.0299152h-38.6321182c.4329783,10.3886805,7.6816328,17.7474458,16.9906669,17.7474458,8.655834,0,13.9598186-4.3288502,15.908221-12.6608836l5.6249857.7577121ZM549.2610052,41.6629665c-.2164892-8.6577003-5.0874954-16.5576885-15.0422644-16.5576885-9.3090341,0-15.3669981,7.7917436-16.4494439,16.5576885h31.4917083Z"/>
    <path class="st1" d="M402.7472973,277.6613509v-68.175424h45.1249268v5.7350966h-38.415629v25.3236334h30.5175071v5.7350966h-30.5175071v31.3815975h-6.7092978Z"/>
    <path class="st1" d="M470.9180556,278.9602859c-13.3103511,0-23.4806761-10.1712582-23.4806761-24.7805442s10.170325-24.7824105,23.4806761-24.7824105c13.4185956,0,23.5935864,10.1731245,23.5935864,24.7824105s-10.1749907,24.7805442-23.5935864,24.7805442ZM470.9180556,273.7664122c10.6079691,0,16.6659331-8.1164774,16.6659331-19.5866706,0-11.4720594-6.057964-19.5885368-16.6659331-19.5885368-10.4959919,0-16.553956,8.1164774-16.553956,19.5885368,0,11.4701932,6.057964,19.5866706,16.553956,19.5866706Z"/>
    <path class="st1" d="M535.1929421,230.6962662h6.6029195v46.9650847h-6.6029195v-8.6577003c-2.2694037,5.7369629-8.5475894,9.9566353-15.5797547,9.9566353-12.1233932,0-16.8824223-7.8999882-16.8824223-19.1536922v-29.1103275h6.599187v29.3268167c0,8.3329666,4.0050495,13.7433294,12.0114161,13.7433294,7.4688762,0,13.851574-5.8433412,13.851574-14.9340198v-28.1361263Z"/>
    <path class="st1" d="M560.2944875,277.6613509h-6.599187v-46.9650847h6.599187v8.6577003c2.2731362-5.7350966,8.7678112-9.9566353,15.7999765-9.9566353,12.1196607,0,17.207156,7.8999882,17.207156,19.1536922v29.1103275h-6.6029195v-29.3268167c0-8.3311003-4.3260507-13.7433294-12.3361498-13.7433294-7.4651436,0-14.0680631,5.8452074-14.0680631,14.9340198v28.1361263Z"/>
    <path class="st1" d="M640.5858396,267.3818482c-2.0566471,5.9515857-8.2228557,11.5784377-17.3154006,11.5784377-13.9598186,0-21.7496959-10.9289702-21.7496959-24.7805442s7.7898774-24.7824105,21.7496959-24.7824105c9.0925449,0,15.2587535,5.7350966,17.3154006,11.6885486v-31.5999529h6.6029195v68.175424h-6.6029195v-10.2795028ZM640.8023288,252.5560729c0-11.2555703-7.356899-17.7483789-16.6659331-17.7483789-9.954769,0-15.6879993,7.4670099-15.6879993,19.3720477,0,11.9031715,5.7332303,19.3701814,15.6879993,19.3701814,9.3090341,0,16.6659331-6.4928087,16.6659331-17.7483789v-3.2454712Z"/>
    <path class="st1" d="M695.2269583,269.7613627c0,2.4896254,1.5154242,3.6803158,3.896805,3.6803158,1.0824458,0,2.9226037-.4329783,4.2215387-1.1906904v3.5720712c-1.4071796,1.6218024-2.9226037,2.8124929-6.1699412,2.8124929-4.654517,0-8.0063665-4.0031833-8.2228557-9.954769-2.4896254,5.5186074-9.4172787,10.2795028-17.4236452,10.2795028-8.7640786,0-14.609286-4.8691399-14.609286-12.9856173,0-8.8741895,7.7898774-12.4443944,19.4802923-14.8257752l12.552639-2.59787v-2.3795145c0-7.1422762-4.2215387-11.580304-11.5821703-11.580304-7.5733882,0-11.7949269,4.4380279-13.4185956,10.4978582l-5.6249857-1.0824458c1.8401579-8.4412111,8.7640786-14.609286,18.9353368-14.609286,11.6904149,0,17.9648681,6.1680749,17.9648681,17.7483789v22.6156526ZM688.952505,253.4220296l-11.4739257,2.4877591c-8.5475894,1.8401579-13.851574,3.5720712-13.851574,9.8483907,0,4.4361616,2.9226037,8.1164774,9.0925449,8.1164774,9.1970569,0,16.2329548-7.0340316,16.2329548-17.5318898v-2.9207374Z"/>
    <path class="st1" d="M710.806713,235.5654061h-7.2486544v-3.2454712l2.8106266-.5412229c4.3297833-.8659567,5.19574-2.9226037,6.1699412-7.4670099l1.4071796-6.7092978h3.3555821v13.0938619h13.6350848v4.8691399h-13.6350848v31.8164421c0,4.2196724,1.7319133,6.2763195,6.057964,6.2763195,3.2473375,0,6.4946749-1.6236687,9.2007895-3.2473375v4.654517c-3.3555821,2.5960037-6.7111641,3.8949387-11.4739257,3.8949387-6.2744532,0-10.2795028-3.1372266-10.2795028-11.6866823v-31.7081975Z"/>
    <path class="st1" d="M739.372085,209.4859269h7.0358979v8.7659449h-7.0358979v-8.7659449ZM746.1914937,230.6962662v46.9650847h-6.6029195v-46.9650847h6.6029195Z"/>
    <path class="st1" d="M778.4371815,278.9602859c-13.3103511,0-23.4816092-10.1712582-23.4816092-24.7805442s10.1712582-24.7824105,23.4816092-24.7824105c13.4185956,0,23.5898538,10.1731245,23.5898538,24.7824105s-10.1712582,24.7805442-23.5898538,24.7805442ZM778.4371815,273.7664122c10.6042365,0,16.6659331-8.1164774,16.6659331-19.5866706,0-11.4720594-6.0616966-19.5885368-16.6659331-19.5885368-10.4959919,0-16.5576885,8.1164774-16.5576885,19.5885368,0,11.4701932,6.0616966,19.5866706,16.5576885,19.5866706Z"/>
    <path class="st1" d="M817.3903009,277.6613509h-6.6029195v-46.9650847h6.6029195v8.6577003c2.2731362-5.7350966,8.7640786-9.9566353,15.7999765-9.9566353,12.1196607,0,17.2034235,7.8999882,17.2034235,19.1536922v29.1103275h-6.599187v-29.3268167c0-8.3311003-4.3297833-13.7433294-12.3361498-13.7433294-7.4688762,0-14.0680631,5.8452074-14.0680631,14.9340198v28.1361263Z"/>
  </g>
  <g>
    <path class="st0" d="M781.4400355,152.6537886c-1.2672081-.9499395-3.0607089-.7017235-4.014381.5654846-4.0834336,5.4122291-14.3405409,15.973541-19.9599277,14.09979-1.5938082-.5337578-4.8560759-3.0308483-6.1568772-14.348006,35.8868116-52.7253762,35.256007-69.7654996,34.7614412-72.6582428-.117576-.6858601-.7483806-2.9188712-3.922933-2.9188712h-.0242617c-9.5348547.0373257-37.0998975,22.2890525-37.0998975,64.5492305,0,8.2032597.7004404,14.7414424,2.1083199,19.6908326-8.7534641,6.4922254-12.1168612,5.7396457-13.1828604,5.0691824-6.2371275-3.9341307-.3489955-30.6752082,1.586343-39.4626154.5673509-2.5764077,1.0152595-4.6115925,1.2317487-5.94692.2575475-1.5760784-.6606652-3.0737729-2.1816882-3.5599404-1.5191567-.4871006-3.1409592.1978263-3.8520141,1.6441979-22.4476868,46.0039475-30.7116008,47.3327431-31.5794238,47.3327431-.1213086,0-.1847623-.0167966-.19596-.0223954-.0279943-.0167966-2.6463934-2.4896254,1.7897682-19.7975609,2.5213523-9.837193,6.0001092-19.2843322,6.0355686-19.3785797.5486881-1.4846304-.2108903-3.133494-1.6945876-3.6821821-.0304438-.0113144-.0617041-.0137639-.0922645-.0239118-.3646256-.1897779-.7708927-.3113198-1.2085368-.3278831-14.1331499-.5467051-28.2720152,3.2437215-39.3135458,7.4231522,11.4209699-27.6560242,30.7166165-43.112954,30.9936433-43.3304929,1.2448127-.9760675,1.4631681-2.7779666.4889669-4.0237124-.9760675-1.2438796-2.7733009-1.4669007-4.0218461-.4908332-1.2609094.9860988-23.54343,18.7897665-34.8909148,50.8891841-7.9100195,3.4976531-13.0622517,6.592305-13.5671987,6.8984926-1.3549236.8192995-1.7879019,2.5810734-.9686024,3.935997.5393566.8902184,1.4855636,1.3829179,2.4560322,1.3829179.5038972,0,1.0152595-.1343726,1.4799647-.4143155.093081-.0564551,3.189016-1.898596,8.2502668-4.3326994-.0840995.3019884-.1701819.601294-.2521819.9053819-5.0127273,9.8100152-15.4071233,24.979537-22.6446966,25.0071813h-.0466571c-2.8423534,0-4.8747388-1.0003292-6.3920292-3.146558-9.3332958-13.1965076,4.5220107-60.5395153,10.6490274-77.6682873.5337578-1.4911624-.2426172-3.1316277-1.7337796-3.6644524-1.4911624-.5356241-3.1316277.241684-3.6635192,1.7328465-.0222788.0611209-.8839197,2.4836766-2.1634919,6.4405527-.1235248.1931606-.2325859.3982188-.3093369.6252058-2.9263363,8.6838283-6.1811389,17.5318898-9.5404535,25.9572375l-4.8448782.0186629c-10.5143048,0-20.5752189,13.3848859-26.1451491,26.405846-.0185462.0401251-.0444409.0745348-.0612375.115943-3.1502906,7.7506854-16.3057399,21.8168822-20.0513757,22.5372686-2.3571191-3.0719066-1.0861784-21.9419234,2.9151386-42.6959557.2911406-1.507959-.26128-3.0569763-1.442639-4.0433084-1.1664287-.9760675-2.7658357-1.2429464-4.1898119-.6942584-9.8539896,3.8240198-23.3155098,26.3538232-30.6630774,39.8508029,1.8140299-22.3161137,8.7510146-35.040451,8.8424626-35.2028178.7707761-1.3791853.2799429-3.1241626-1.0992424-3.8986713-1.3810516-.7754418-3.1297615-.2846086-3.9024038,1.096443-.2591805.460506-4.1544691,7.5408448-7.0066205,20.3398336-.0204125.0618207-.0501564.1179259-.0666031.1818462-1.703919,6.6439778-8.4953334,25.6129077-17.0410566,25.6129077-.6905258,0-1.129103-.2239543-1.5658139-.8006367-4.3521787-5.7369629.2295532-30.0201419,4.1394221-43.9780942.0173798-.062054.0194794-.124108.0325434-.1862787.0243784-.115943.0509729-.2311862.0606543-.347829.0072319-.0850327.0010498-.1679657.0006999-.2521819-.0004666-.1008961.0026828-.2014422-.0083983-.3011719-.0100313-.0900483-.0324267-.176364-.0507396-.2644294-.0192461-.0929644-.0347596-.1860454-.0631038-.2765602-.0257781-.0822332-.0626372-.1593342-.0956472-.238768-.0377923-.0913314-.0725519-.1831293-.1196756-.2702615-.0388421-.0717354-.0875988-.1369387-.1323897-.2051748-.0565718-.0860824-.1102275-.173098-.176364-.2533483-.0540056-.0655533-.1173427-.1222417-.1771805-.1830127-.0699857-.0710355-.1364722-.1444039-.2147395-.2084408-.0754679-.0619374-.1606172-.1120938-.2429671-.166566-.0668364-.0442076-.1258577-.0961137-.1974764-.1353057-.0110811-.0059488-.0229786-.0085149-.0340597-.0143471-.0799004-.0422247-.1680824-.0712688-.2528817-.1062617-.0949473-.0389587-.1881449-.0835163-.2849585-.1117439-.0108478-.0031494-.0200626-.0090981-.0309104-.0121309-.0787339-.0222788-.1575845-.0262446-.2365517-.0415249-.0949473-.017963-.1888448-.0417581-.2842587-.0500398-.1095277-.009798-.2169557-.0037326-.325317-.0008165-.0765177.0020996-.1529188-.0017496-.2287367.0062987-.1057951.011431-.2076243.0365092-.31062.0594879-.0787339.0172631-.1579344.0298606-.2349187.0536557-.0877154.0274111-.1699487.0661365-.2545147.1017126-.0878321.0366259-.176364.0697524-.2603469.1151265-.0696358.0377923-.1329729.0851493-.1993427.1286571-.0888819.0578549-.1783469.1131436-.2608135.1811464-.0625206.0515561-.1165262.1123271-.174731.1691322-.0738349.0722019-.1497694.1412545-.2162559.2223213-.0628705.0764011-.1137268.1627168-.1687822.2461165-.0433911.0659032-.094714.1239914-.1332062.1944437-11.9479624,21.8626062-28.2294406,45.4151343-34.6494641,46.9977447-1.1869578-4.1263581,2.8554174-21.2439324,5.3151823-31.6662061,4.7963548-20.3079901,6.3584361-28.2947606,3.7195078-31.6167495-.7894389-.9937972-1.9409373-1.5238224-3.1764186-1.5331539-11.3040937.0438577-21.1095598,20.3191878-30.5921585,39.9273206-4.4753536,9.2567781-11.11,22.977712-14.4254569,24.8999865-2.4131077-7.121747,7.6144465-48.5243666,15.9875382-75.2691767.2146229-.6858601.378856-2.0594465-.9406081-3.5590072-1.037655-1.1804258-2.3524534-1.7347127-3.6056644-1.5070259-11.9050378,2.0967722-22.6585771,29.7560624-34.4796321,62.9638206-2.6837191,7.539795-5.659512,15.8988896-7.4250185,19.5549437-2.1210339-6.5320007,1.5816773-33.3393314,8.7762095-62.1053291.3844549-1.5350202-.5496212-3.0915026-2.0855745-3.4759575-1.534087-.3863212-3.0924357.5486881-3.4759575,2.0846414-2.4467008,9.778405-14.2836192,59.0212917-7.0685579,68.22768,1.0955098,1.3978481,2.6295968,2.1667579,4.321385,2.1667579h.0205291c3.3882421-.013064,4.7077062-3.094302,12.3380161-24.5285956,6.4106921-18.009659,17.7661087-49.9100839,26.9557004-57.600115-4.5192113,15.0571947-19.935666,68.5272189-13.6500151,77.0468141.9284772,1.2578767,2.2666042,1.9502688,3.7717638,1.9502688h.0186629c6.1438132-.0242617,11.1267966-9.7382798,20.1288266-28.3526154,7.0769561-14.6354141,16.6286074-34.3863178,24.1777339-36.5045523.26128,4.1851461-2.6725214,16.6080782-4.8691399,25.9124466-5.2106702,22.0641651-7.3083756,32.9110188-4.0386427,37.0243129.9107475,1.1458995,2.2115488,1.7767042,3.6691181,1.7767042h.0186629c3.6821821-.0149303,10.3317588-2.6818528,25.5009306-25.5867797,1.8233613-2.7531216,3.5727711-5.5075263,5.1985394-8.1321075-3.9422957,22.1154879.0934309,29.1253744,1.1319024,30.4939452,1.521023,2.0081236,3.6429901,3.0700403,6.1344818,3.0700403,5.9770139,0,10.7256617-4.5518713,14.3027486-10.119702-.1195589,2.427688-.2019088,4.9163803-.1917609,7.5367623.0093314,1.4836973,1.024591,2.7509054,2.4728288,3.0793717.2370183.0559886.4759029.0821166.7129212.0821166,1.1888241,0,2.2973979-.6699966,2.8348883-1.7748379,6.1848715-12.5955636,20.7736284-38.3129833,30.1909071-45.5681697-2.4317705,13.3616739-6.0616966,38.1254216-.9499395,44.2916302,1.0451201,1.259743,2.4709625,1.9540013,4.0199798,1.9540013h.0205291c4.1867791-.0162134,10.5256192-5.6337339,15.9078711-11.8995556-.021229.3941363-.0369758.7824404-.0369758,1.1534813,0,2.8050277.5524206,5.0837628,1.6441979,6.7708853,1.3661213,2.1163682,3.5758038,3.2809306,6.2203309,3.2809306,4.8731058,0,12.3071057-4.3335159,26.7815526-37.3934876-2.328075,15.9635098-1.3685708,27.0914727,2.9054572,33.1364894,2.5773408,3.6448564,6.4069595,5.5689971,11.0764068,5.5689971h.0671863c7.1112491-.0271778,14.2341626-7.4500967,19.5267161-14.7513571-.5486881,4.5710007-.8551089,9.324081-.8358628,14.2773204.0373257,9.5796455.1194423,31.9993381,15.3315387,31.9974718h.0578549c5.4159617-.0205291,11.2499714-4.9811171,14.1856391-12.0636721,2.9617957-7.1441424,6.9575138-26.4732655-18.728179-53.1219619.1245746-.389004.2592971-.7661104.3872543-1.1510318,10.2244473-4.2841759,24.317822-8.8411795,38.3450601-9.0658337-3.8338178,10.9625634-10.8344895,33.6340879-5.9398048,40.6634538,1.1664287,1.6759247,2.9431329,2.59787,5.0035125,2.59787,2.6128003,0,9.9043793-.0018663,28.2369057-33.9458743-2.6855854,14.9209558-3.4694255,28.65682,3.5011524,33.0537896,1.4053133.8864858,2.9935226,1.3306618,4.7758256,1.3306618,3.6934964,0,8.2241388-1.9235576,13.6677448-5.7711392,1.6335834,2.8988086,3.7304722,4.782241,6.3145784,5.6460981,1.037655.3471292,2.0995716.5057635,3.172686.5057635,10.3634856,0,21.7944868-14.7511238,23.1830035-16.5950142.9518058-1.2653418.6979909-3.0607089-.5654846-4.014381ZM590.9892917,166.0163956c-.9032824,0-1.1906904-.3266-1.4053133-.6587989-.2724777-.4199143-.7259852-1.4538367-.7259852-3.6597867,0-12.3510801,13.9467546-38.3409776,24.9055854-38.3409776l2.4989568-.0093314c-9.8054661,23.6813018-20.0420443,42.6688946-25.2732437,42.6688946ZM674.7892613,190.3266358c-2.2899328,5.5242063-6.3005812,8.5158626-8.9115152,8.525194h-.0298606c-6.5730589,0-9.5348547-8.1108785-9.6039073-26.2866369-.0373257-9.6561633,1.207487-18.5900739,3.2734655-26.7457433,20.8314832,22.8825315,17.7129195,38.6171879,15.2718175,44.5071862ZM780.3482583,83.521893c-.6196069,5.5755291-4.7627616,22.4131606-29.5824978,59.9702981-.0055989-.5057635-.0093314-1.0208584-.0093314-1.5490173,0-36.5316134,21.1935427-55.518273,29.5918293-58.4212808Z"/>
    <path class="st0" d="M516.8557499,111.299809c1.5617314-.0060654,2.8228741-1.2770061,2.8168086-2.8387375s-1.2770061-2.8228741-2.8387375-2.8168086c-1.5617314.0059488-2.8228741,1.2768895-2.8168086,2.8386209s1.2770061,2.8228741,2.8387375,2.8169253Z"/>
  </g>
</svg>